<?xml version="1.0" encoding="UTF-8"?><svg xmlns="http://www.w3.org/2000/svg" xmlns:xlink="http://www.w3.org/1999/xlink" width="24px" height="24px" viewBox="0 0 24 24" version="1.1"><path style=" stroke:none;fill-rule:evenodd;fill:rgb(0%,0%,0%);fill-opacity:1;" d="M 5.601562 8 C 5.160156 8 4.800781 8.359375 4.800781 8.800781 L 4.800781 18.398438 C 4.800781 18.839844 5.160156 19.199219 5.601562 19.199219 L 18.398438 19.199219 C 18.839844 19.199219 19.199219 18.839844 19.199219 18.398438 L 19.199219 8.800781 C 19.199219 8.359375 18.839844 8 18.398438 8 L 16.398438 8 C 15.960938 8 15.601562 7.640625 15.601562 7.199219 C 15.601562 6.757812 15.960938 6.398438 16.398438 6.398438 L 18.398438 6.398438 C 19.726562 6.398438 20.800781 7.476562 20.800781 8.800781 L 20.800781 18.398438 C 20.800781 19.726562 19.726562 20.800781 18.398438 20.800781 L 5.601562 20.800781 C 4.273438 20.800781 3.199219 19.726562 3.199219 18.398438 L 3.199219 8.800781 C 3.199219 7.476562 4.273438 6.398438 5.601562 6.398438 L 7.601562 6.398438 C 8.039062 6.398438 8.398438 6.757812 8.398438 7.199219 C 8.398438 7.640625 8.039062 8 7.601562 8 Z M 11.199219 2.617188 L 8.910156 4.910156 C 8.628906 5.191406 8.171875 5.191406 7.890625 4.910156 C 7.609375 4.628906 7.609375 4.171875 7.890625 3.890625 L 11.492188 0.289062 C 11.625 0.15625 11.808594 0.0820312 12 0.0820312 C 12.191406 0.0820312 12.375 0.15625 12.507812 0.289062 L 16.109375 3.890625 C 16.390625 4.171875 16.390625 4.628906 16.109375 4.910156 C 15.828125 5.191406 15.371094 5.191406 15.089844 4.910156 L 12.800781 2.617188 L 12.800781 13.601562 C 12.800781 14.039062 12.441406 14.398438 12 14.398438 C 11.558594 14.398438 11.199219 14.039062 11.199219 13.601562 Z M 11.199219 2.617188 "/></svg>