<?xml version="1.0" encoding="UTF-8"?>
<svg xmlns="http://www.w3.org/2000/svg" xmlns:xlink="http://www.w3.org/1999/xlink" width="30px" height="30px" viewBox="0 0 30 35" version="1.1">
<g id="surface1">
<path style="fill-rule:nonzero;fill:#ffffff;fill-opacity:1;stroke-width:14.4;stroke-linecap:butt;stroke-linejoin:miter;stroke:rgb(100%,100%,100%);stroke-opacity:1;stroke-miterlimit:4;" d="M 90.994531 41.008371 C 90.994531 -5.389509 50.263281 -43.008371 0 -43.008371 C -50.263281 -43.008371 -90.994531 -5.389509 -90.994531 41.008371 C -90.994531 87.40625 -50.263281 124.986607 0 124.986607 C 50.263281 124.986607 90.994531 87.40625 90.994531 41.008371 Z M 90.994531 41.008371 " transform="matrix(0.102041,0,0,0.101449,15,7.101449)"/>
<path style="fill-rule:nonzero;fill:#ffffff;fill-opacity:1;stroke-width:14.4;stroke-linecap:butt;stroke-linejoin:miter;stroke:rgb(100%,100%,100%);stroke-opacity:1;stroke-miterlimit:4;" d="M -68.982812 19.984933 L 68.982812 19.984933 C 81.15625 19.984933 90.994531 29.842076 90.994531 42.009487 L 90.994531 180.009487 C 90.994531 192.138393 81.15625 201.995536 68.982812 201.995536 L -68.982812 201.995536 C -81.15625 201.995536 -90.994531 192.138393 -90.994531 180.009487 L -90.994531 42.009487 C -90.994531 29.842076 -81.15625 19.984933 -68.982812 19.984933 Z M -68.982812 19.984933 " transform="matrix(0.102041,0,0,0.101449,15,7.101449)"/>
<path style="fill-rule:nonzero;fill:#ffffff;fill-opacity:1;stroke-width:7.2;stroke-linecap:butt;stroke-linejoin:miter;stroke:rgb(100%,100%,100%);stroke-opacity:1;stroke-miterlimit:4;" d="M 20.523641 -85.996244 C 24.109157 -86.002637 27.002857 -83.072145 27.008242 -79.509167 L 26.988263 -6.505909 C 27.012315 -2.909254 24.071588 -0.00247964 20.486072 0.00391371 C 16.900556 0.0103071 14.006856 -2.920185 14.001471 -6.483163 L 14.002783 -79.520098 C 13.997398 -83.083076 16.885976 -86.004968 20.523641 -85.996244 Z M 20.523641 -85.996244 " transform="matrix(-0.0892469,0.0491836,0.0494704,0.0887295,15,7.101449)"/>
<path style="fill-rule:nonzero;fill:#ffffff;fill-opacity:1;stroke-width:7.2;stroke-linecap:butt;stroke-linejoin:miter;stroke:rgb(100%,100%,100%);stroke-opacity:1;stroke-miterlimit:4;" d="M -119.016406 41.008371 C -105.732812 41.008371 -95.014062 51.751116 -95.014062 64.996652 L -95.014062 150.014509 C -95.014062 163.260045 -105.732812 174.00279 -119.016406 174.00279 C -132.261719 174.00279 -143.01875 163.260045 -143.01875 150.014509 L -143.01875 64.996652 C -143.01875 51.751116 -132.261719 41.008371 -119.016406 41.008371 Z M -119.016406 41.008371 " transform="matrix(-0.102041,0,0,0.101449,15,7.101449)"/>
<path style="fill-rule:nonzero;fill:#ffffff;fill-opacity:1;stroke-width:7.2;stroke-linecap:butt;stroke-linejoin:miter;stroke:rgb(100%,100%,100%);stroke-opacity:1;stroke-miterlimit:4;" d="M -118.99375 41.001116 C -105.748437 41.001116 -94.991406 51.743862 -94.991406 64.989397 L -94.991406 150.007254 C -94.991406 163.25279 -105.748437 173.995536 -118.99375 173.995536 C -132.239062 173.995536 -142.996094 163.25279 -142.996094 150.007254 L -142.996094 64.989397 C -142.996094 51.743862 -132.239062 41.001116 -118.99375 41.001116 Z M -118.99375 41.001116 " transform="matrix(-0.102041,0,0,0.101449,6.326531,16.942029)"/>
<path style="fill-rule:nonzero;fill:#ffffff;fill-opacity:1;stroke-width:7.2;stroke-linecap:butt;stroke-linejoin:miter;stroke:rgb(100%,100%,100%);stroke-opacity:1;stroke-miterlimit:4;" d="M 20.523641 -85.996244 C 24.109157 -86.002637 27.002857 -83.072145 27.008242 -79.509167 L 26.988263 -6.505909 C 27.012315 -2.909254 24.071588 -0.00247964 20.486072 0.00391371 C 16.900556 0.0103071 14.006856 -2.920185 14.001471 -6.483163 L 14.002783 -79.520098 C 13.997398 -83.083076 16.885976 -86.004968 20.523641 -85.996244 Z M 20.523641 -85.996244 " transform="matrix(0.0892469,0.0491836,-0.0494704,0.0887295,15,7.101449)"/>
<path style="fill-rule:nonzero;fill:#ffffff;fill-opacity:1;stroke-width:7.2;stroke-linecap:butt;stroke-linejoin:miter;stroke:rgb(100%,100%,100%);stroke-opacity:1;stroke-miterlimit:4;" d="M -119.016406 41.008371 C -105.732812 41.008371 -95.014062 51.751116 -95.014062 64.996652 L -95.014062 150.014509 C -95.014062 163.260045 -105.732812 174.00279 -119.016406 174.00279 C -132.261719 174.00279 -143.01875 163.260045 -143.01875 150.014509 L -143.01875 64.996652 C -143.01875 51.751116 -132.261719 41.008371 -119.016406 41.008371 Z M -119.016406 41.008371 " transform="matrix(0.102041,0,0,0.101449,15,7.101449)"/>
<path style="fill-rule:nonzero;fill:#ffffff;fill-opacity:1;stroke-width:7.2;stroke-linecap:butt;stroke-linejoin:miter;stroke:rgb(100%,100%,100%);stroke-opacity:1;stroke-miterlimit:4;" d="M -118.99375 41.001116 C -105.748437 41.001116 -94.991406 51.743862 -94.991406 64.989397 L -94.991406 150.007254 C -94.991406 163.25279 -105.748437 173.995536 -118.99375 173.995536 C -132.239062 173.995536 -142.996094 163.25279 -142.996094 150.007254 L -142.996094 64.989397 C -142.996094 51.743862 -132.239062 41.001116 -118.99375 41.001116 Z M -118.99375 41.001116 " transform="matrix(0.102041,0,0,0.101449,23.673469,16.942029)"/>
<path style=" stroke:none;fill-rule:nonzero;fill:#ffffff;fill-opacity:1;" d="M 24.285156 11.261719 C 24.285156 6.554688 20.128906 2.738281 15 2.738281 C 9.871094 2.738281 5.714844 6.554688 5.714844 11.261719 C 5.714844 15.96875 9.871094 19.78125 15 19.78125 C 20.128906 19.78125 24.285156 15.96875 24.285156 11.261719 Z M 24.285156 11.261719 "/>
<path style=" stroke:none;fill-rule:nonzero;fill:#ffffff;fill-opacity:1;" d="M 7.960938 9.128906 L 22.039062 9.128906 C 23.28125 9.128906 24.285156 10.128906 24.285156 11.363281 L 24.285156 25.363281 C 24.285156 26.59375 23.28125 27.59375 22.039062 27.59375 L 7.960938 27.59375 C 6.71875 27.59375 5.714844 26.59375 5.714844 25.363281 L 5.714844 11.363281 C 5.714844 10.128906 6.71875 9.128906 7.960938 9.128906 Z M 7.960938 9.128906 "/>
<path style="fill:none;stroke-width:7.2;stroke-linecap:butt;stroke-linejoin:miter;stroke:rgb(100%,100%,100%);stroke-opacity:1;stroke-miterlimit:4;" d="M -95.014062 44.512277 L 95.014062 44.512277 " transform="matrix(0.102041,0,0,0.101449,15,7.101449)"/>
<path style="fill-rule:nonzero;fill:rgb(100%,100%,100%);fill-opacity:1;stroke-width:7.2;stroke-linecap:butt;stroke-linejoin:miter;stroke:rgb(100%,100%,100%);stroke-opacity:1;stroke-miterlimit:4;" d="M -38.013281 0.00111607 C -38.013281 -2.193638 -39.774219 -4.003348 -41.994531 -4.003348 C -44.214844 -4.003348 -46.014062 -2.193638 -46.014062 0.00111607 C -46.014062 2.195871 -44.214844 4.00558 -41.994531 4.00558 C -39.774219 4.00558 -38.013281 2.195871 -38.013281 0.00111607 Z M -38.013281 0.00111607 " transform="matrix(0.102041,0,0,0.101449,15,7.101449)"/>
<path style="fill-rule:nonzero;fill:rgb(100%,100%,100%);fill-opacity:1;stroke-width:7.2;stroke-linecap:butt;stroke-linejoin:miter;stroke:rgb(100%,100%,100%);stroke-opacity:1;stroke-miterlimit:4;" d="M 46.014062 0.00111607 C 46.014062 -2.193638 44.214844 -4.003348 41.994531 -4.003348 C 39.774219 -4.003348 38.013281 -2.193638 38.013281 0.00111607 C 38.013281 2.195871 39.774219 4.00558 41.994531 4.00558 C 44.214844 4.00558 46.014062 2.195871 46.014062 0.00111607 Z M 46.014062 0.00111607 " transform="matrix(0.102041,0,0,0.101449,15,7.101449)"/>
</g>
</svg>
