<?xml version="1.0" encoding="UTF-8"?><svg xmlns="http://www.w3.org/2000/svg" xmlns:xlink="http://www.w3.org/1999/xlink" width="30px" height="30px" viewBox="0 0 30 36" version="1.1"><path style=" stroke:none;fill-rule:nonzero;fill-opacity:1;" d="M 29.046875 12.273438 C 28.832031 12.433594 25.058594 14.511719 25.058594 19.128906 C 25.058594 24.472656 29.859375 26.363281 30.003906 26.410156 C 29.980469 26.523438 29.242188 28.996094 27.472656 31.519531 C 25.894531 33.734375 24.246094 35.949219 21.742188 35.949219 C 19.234375 35.949219 18.589844 34.527344 15.695312 34.527344 C 12.878906 34.527344 11.875 35.996094 9.582031 35.996094 C 7.289062 35.996094 5.691406 33.945312 3.851562 31.425781 C 1.722656 28.464844 0 23.867188 0 19.503906 C 0 12.507812 4.660156 8.792969 9.242188 8.792969 C 11.679688 8.792969 13.710938 10.355469 15.238281 10.355469 C 16.695312 10.355469 18.964844 8.703125 21.738281 8.703125 C 22.789062 8.703125 26.5625 8.792969 29.046875 12.273438 Z M 20.421875 5.738281 C 21.566406 4.410156 22.378906 2.566406 22.378906 0.722656 C 22.378906 0.46875 22.355469 0.207031 22.308594 0 C 20.445312 0.0703125 18.226562 1.214844 16.886719 2.730469 C 15.835938 3.894531 14.855469 5.738281 14.855469 7.605469 C 14.855469 7.886719 14.902344 8.167969 14.925781 8.257812 C 15.042969 8.28125 15.234375 8.304688 15.425781 8.304688 C 17.101562 8.304688 19.207031 7.210938 20.421875 5.738281 Z M 20.421875 5.738281 "/></svg>
