<?xml version="1.0" encoding="UTF-8"?>
<svg xmlns="http://www.w3.org/2000/svg" xmlns:xlink="http://www.w3.org/1999/xlink" width="30px" height="30px" viewBox="0 0 30 30" version="1.1">
<g id="surface1">
<path style=" stroke:none;fill-rule:evenodd;fill:rgb(0%,0%,0%);fill-opacity:1;" d="M 7 10 C 6.449219 10 6 10.449219 6 11 L 6 23 C 6 23.550781 6.449219 24 7 24 L 23 24 C 23.550781 24 24 23.550781 24 23 L 24 11 C 24 10.449219 23.550781 10 23 10 L 20.5 10 C 19.949219 10 19.5 9.550781 19.5 9 C 19.5 8.449219 19.949219 8 20.5 8 L 23 8 C 24.65625 8 26 9.34375 26 11 L 26 23 C 26 24.65625 24.65625 26 23 26 L 7 26 C 5.34375 26 4 24.65625 4 23 L 4 11 C 4 9.34375 5.34375 8 7 8 L 9.5 8 C 10.050781 8 10.5 8.449219 10.5 9 C 10.5 9.550781 10.050781 10 9.5 10 Z M 14 3.273438 L 11.136719 6.136719 C 10.785156 6.488281 10.214844 6.488281 9.863281 6.136719 C 9.511719 5.785156 9.511719 5.214844 9.863281 4.863281 L 14.363281 0.363281 C 14.53125 0.195312 14.761719 0.101562 15 0.101562 C 15.238281 0.101562 15.46875 0.195312 15.636719 0.363281 L 20.136719 4.863281 C 20.488281 5.214844 20.488281 5.785156 20.136719 6.136719 C 19.785156 6.488281 19.214844 6.488281 18.863281 6.136719 L 16 3.273438 L 16 17 C 16 17.550781 15.550781 18 15 18 C 14.449219 18 14 17.550781 14 17 Z M 14 3.273438 "/>
</g>
</svg>
