<?xml version="1.0" encoding="UTF-8"?><svg xmlns="http://www.w3.org/2000/svg" xmlns:xlink="http://www.w3.org/1999/xlink" width="30px" height="30px" viewBox="0 0 30 30" version="1.1"><path style=" stroke:none;fill-rule:evenodd;fill-opacity:1;" d="M 10 15 C 10 16.65625 8.65625 18 7 18 C 5.34375 18 4 16.65625 4 15 C 4 13.34375 5.34375 12 7 12 C 8.65625 12 10 13.34375 10 15 Z M 11.425781 17.328125 C 10.589844 18.917969 8.921875 20 7 20 C 4.238281 20 2 17.761719 2 15 C 2 12.238281 4.238281 10 7 10 C 8.921875 10 10.589844 11.082031 11.425781 12.671875 L 18.207031 8.433594 C 18.074219 7.980469 18 7.5 18 7 C 18 4.238281 20.238281 2 23 2 C 25.761719 2 28 4.238281 28 7 C 28 9.761719 25.761719 12 23 12 C 21.382812 12 19.945312 11.234375 19.03125 10.042969 L 11.96875 14.453125 C 11.988281 14.632812 12 14.816406 12 15 C 12 15.183594 11.988281 15.367188 11.96875 15.546875 L 19.03125 19.957031 C 19.945312 18.769531 21.382812 18 23 18 C 25.761719 18 28 20.238281 28 23 C 28 25.761719 25.761719 28 23 28 C 20.238281 28 18 25.761719 18 23 C 18 22.5 18.074219 22.019531 18.207031 21.566406 Z M 23 10 C 24.65625 10 26 8.65625 26 7 C 26 5.34375 24.65625 4 23 4 C 21.34375 4 20 5.34375 20 7 C 20 8.65625 21.34375 10 23 10 Z M 26 23 C 26 24.65625 24.65625 26 23 26 C 21.34375 26 20 24.65625 20 23 C 20 21.34375 21.34375 20 23 20 C 24.65625 20 26 21.34375 26 23 Z M 26 23 "/></svg>
